<svg xmlns="http://www.w3.org/2000/svg" width="960" height="540" viewBox="0 0 960 540"><rect width="960" height="540" fill="#ff72ba"/><defs><pattern id="p" width="28" height="28" patternUnits="userSpaceOnUse"><circle cx="2" cy="2" r="2" fill="#372459" opacity=".15"/></pattern></defs><rect width="960" height="540" fill="url(#p)"/><g font-family="Arial,sans-serif" fill="#372459"><rect x="30" y="28" width="900" height="484" rx="16" fill="none" stroke="#372459" stroke-width="5"/><text x="44" y="72" font-size="18" font-weight="700">MLGGK / TIKTOK</text><text x="44" y="150" font-size="46" font-weight="900">REASONS TO</text><text x="44" y="207" font-size="46" font-weight="900">GET A BOB</text><rect x="44" y="300" width="460" height="3" fill="#372459"/><text x="44" y="342" font-size="20" font-weight="700">LIST / REPEAT</text><text x="44" y="480" font-size="16" letter-spacing="2">ILUSTRAČNÝ VIZUÁL / FLASH NEWZ</text></g><g transform="translate(605 112) scale(1.15)"><rect x="-18" y="-18" width="288" height="280" rx="24" fill="#372459"/><path d="M55 130 Q55 30 130 30 Q205 30 205 130 L205 185 L55 185Z" fill="#171126"/><ellipse cx="130" cy="116" rx="46" ry="62" fill="#ffcfab"/><path d="M80 91 L180 91 L162 46 L101 47Z" fill="#171126"/><path d="M55 186 L97 169 M205 186 L163 169" stroke="#ffcfab" stroke-width="8"/></g></svg>